# xmcd
#
# Track frame offsets: 
#        150
#        18371
#        40519
#        58237
#        77438
#        95092
#        112498
#        132368
#        147481
#        167221
#        185625
#        202596
#        221070
#
# Disc length: 3227 seconds
#
# Revision: 0
# Processed by: cddbd v1.5.2PL0 Copyright (c) Steve Scherf et al.
# Submitted via: ExactAudioCopy v0.95a5
#
DISCID=bf0c990d
DTITLE=Taylor Swift - Fearless
DYEAR=2009
DGENRE=Country
TTITLE0=Fearless
TTITLE1=Fifteen
TTITLE2=Love Story
TTITLE3=Hey Stephen
TTITLE4=White Horse
TTITLE5=You Belong With Me
TTITLE6=Breathe (Featuring Colbie Caillat)
TTITLE7=Tell Me Why
TTITLE8=You're Not Sorry
TTITLE9=The Way I loved you
TTITLE10=Forever and Always
TTITLE11=The Best Day
TTITLE12=Change
EXTD=
EXTT0=
EXTT1=
EXTT2=
EXTT3=
EXTT4=
EXTT5=
EXTT6=
EXTT7=
EXTT8=
EXTT9=
EXTT10=
EXTT11=
EXTT12=
PLAYORDER=
